<mxfile host="app.diagrams.net" modified="2022-12-30T11:18:55.700Z" agent="5.0 (Windows NT 10.0; Win64; x64) AppleWebKit/537.36 (KHTML, like Gecko) Chrome/108.0.0.0 Safari/537.36" version="20.7.4" etag="PGoi3y-qcjQ-uIC79h4c" type="github">
  <diagram id="HykYaGcYHbIKRSgpaGg-" name="migration vers api">
    <mxGraphModel dx="1372" dy="804" grid="1" gridSize="10" guides="1" tooltips="1" connect="1" arrows="1" fold="1" page="1" pageScale="1" pageWidth="827" pageHeight="1169" math="0" shadow="0">
      <root>
        <mxCell id="0" />
        <mxCell id="1" parent="0" />
        <mxCell id="WD7xyTRnsnxBFYA-D2fI-40" value="" style="rounded=0;whiteSpace=wrap;html=1;fillColor=#3660C2;strokeColor=none;opacity=70;" vertex="1" parent="1">
          <mxGeometry x="1050" y="70" width="460" height="1090" as="geometry" />
        </mxCell>
        <mxCell id="WD7xyTRnsnxBFYA-D2fI-39" value="" style="rounded=0;whiteSpace=wrap;html=1;fillColor=#12AAB5;strokeColor=none;opacity=70;" vertex="1" parent="1">
          <mxGeometry x="550" y="70" width="460" height="1090" as="geometry" />
        </mxCell>
        <mxCell id="WD7xyTRnsnxBFYA-D2fI-38" value="" style="rounded=0;whiteSpace=wrap;html=1;fillColor=#E6E6E6;strokeColor=none;opacity=70;" vertex="1" parent="1">
          <mxGeometry x="50" y="70" width="460" height="1090" as="geometry" />
        </mxCell>
        <mxCell id="WD7xyTRnsnxBFYA-D2fI-31" value="V1 - Origins" style="shape=step;perimeter=stepPerimeter;whiteSpace=wrap;html=1;fixedSize=1;fillColor=#E6E6E6;" vertex="1" parent="1">
          <mxGeometry x="30" y="50" width="500" height="40" as="geometry" />
        </mxCell>
        <mxCell id="WD7xyTRnsnxBFYA-D2fI-32" value="MVC" style="shape=step;perimeter=stepPerimeter;whiteSpace=wrap;html=1;fixedSize=1;fillColor=#12AAB5;" vertex="1" parent="1">
          <mxGeometry x="530" y="50" width="500" height="40" as="geometry" />
        </mxCell>
        <mxCell id="WD7xyTRnsnxBFYA-D2fI-33" value="JSON" style="shape=step;perimeter=stepPerimeter;whiteSpace=wrap;html=1;fixedSize=1;fillColor=#3660C2;" vertex="1" parent="1">
          <mxGeometry x="1030" y="50" width="500" height="40" as="geometry" />
        </mxCell>
        <mxCell id="WD7xyTRnsnxBFYA-D2fI-35" value="" style="endArrow=none;html=1;rounded=0;" edge="1" parent="1">
          <mxGeometry width="50" height="50" relative="1" as="geometry">
            <mxPoint x="529" y="1160" as="sourcePoint" />
            <mxPoint x="529" y="10" as="targetPoint" />
          </mxGeometry>
        </mxCell>
        <mxCell id="WD7xyTRnsnxBFYA-D2fI-36" value="" style="endArrow=none;html=1;rounded=0;" edge="1" parent="1">
          <mxGeometry width="50" height="50" relative="1" as="geometry">
            <mxPoint x="1030" y="1160" as="sourcePoint" />
            <mxPoint x="1030" y="10" as="targetPoint" />
          </mxGeometry>
        </mxCell>
        <mxCell id="WD7xyTRnsnxBFYA-D2fI-41" value="" style="rounded=0;whiteSpace=wrap;html=1;fillColor=#43C45D;strokeColor=none;opacity=70;" vertex="1" parent="1">
          <mxGeometry x="1550" y="70" width="460" height="1090" as="geometry" />
        </mxCell>
        <mxCell id="WD7xyTRnsnxBFYA-D2fI-37" value="" style="endArrow=none;html=1;rounded=0;" edge="1" parent="1">
          <mxGeometry width="50" height="50" relative="1" as="geometry">
            <mxPoint x="1529" y="1169" as="sourcePoint" />
            <mxPoint x="1529" y="19" as="targetPoint" />
          </mxGeometry>
        </mxCell>
        <mxCell id="WD7xyTRnsnxBFYA-D2fI-34" value="REST API" style="shape=step;perimeter=stepPerimeter;whiteSpace=wrap;html=1;fixedSize=1;fillColor=#43C45D;" vertex="1" parent="1">
          <mxGeometry x="1530" y="50" width="500" height="40" as="geometry" />
        </mxCell>
      </root>
    </mxGraphModel>
  </diagram>
</mxfile>
